<svg version="1.1" xmlns="http://www.w3.org/2000/svg" viewBox="0 0 4572.370683477939 1514.5972128701028" width="4572.370683477939" height="1514.5972128701028">
  <!-- svg-source:excalidraw -->
  
  <defs>
    <style>
      @font-face {
        font-family: "Virgil";
        src: url("https://excalidraw.com/Virgil.woff2");
      }
      @font-face {
        font-family: "Cascadia";
        src: url("https://excalidraw.com/Cascadia.woff2");
      }
    </style>
  </defs>
  <rect x="0" y="0" width="4572.370683477939" height="1514.5972128701028" fill="#ffffff"></rect><g stroke-linecap="round" transform="translate(11.394377230894861 325.6421159911861) rotate(0 237.09629932614234 318.19457932862133)"><path d="M-0.14 -0.63 C119.18 2.3, 237.77 1.81, 474.22 0.84 M-0.23 0.4 C100.97 -1.87, 202.36 -1.56, 474.54 0.26 M474.22 -0.22 C476.02 203.1, 477.01 407.27, 474.79 635.63 M474.46 -0.19 C472.93 162.26, 473.19 324.04, 474.46 636.4 M473.84 636.38 C323.39 635.37, 172.77 635.5, 0.46 636.67 M473.77 636.79 C308.77 634.27, 142.37 634.32, 0.02 636.08 M-0.79 636.09 C-1.62 497.16, -1.52 357.26, -0.5 0.35 M-0.39 636.31 C-1.12 421.74, -0.74 206.5, -0.21 0.05" stroke="#000000" stroke-width="1" fill="none"></path></g><g stroke-linecap="round"><g transform="translate(10.887364299576802 392.89387646208615) rotate(0 237.11136645302895 -0.7269361585581464)"><path d="M1.09 -0.13 C80.07 0.09, 395.36 0.4, 474.02 0.27 M0.2 -1.24 C79 -1.31, 393.78 -1.9, 472.97 -1.72" stroke="#000000" stroke-width="1" fill="none"></path></g></g><g transform="translate(183.99067655703675 337.9973163620489) rotate(0 64.5 21.5)"><text x="64.5" y="34" font-family="Cascadia, Segoe UI Emoji" font-size="36px" fill="#000000" text-anchor="middle" style="white-space: pre;" direction="ltr">Person</text></g><g transform="translate(45.37420738784749 424.027537452469) rotate(0 83 12)"><text x="0" y="19" font-family="Cascadia, Segoe UI Emoji" font-size="20px" fill="#000000" text-anchor="start" style="white-space: pre;" direction="ltr">- name: string</text></g><g transform="translate(45.37420738784749 642.4659799145911) rotate(0 118 12)"><text x="0" y="19" font-family="Cascadia, Segoe UI Emoji" font-size="20px" fill="#000000" text-anchor="start" style="white-space: pre;" direction="ltr">+ String : getName()</text></g><g transform="translate(45.37420738784749 495.821607867857) rotate(0 100.5 12)"><text x="0" y="19" font-family="Cascadia, Segoe UI Emoji" font-size="20px" fill="#000000" text-anchor="start" style="white-space: pre;" direction="ltr">- height: integer</text></g><g transform="translate(45.37420738784749 713.8253492110516) rotate(0 118 12)"><text x="0" y="19" font-family="Cascadia, Segoe UI Emoji" font-size="20px" fill="#000000" text-anchor="start" style="white-space: pre;" direction="ltr">+ Integer : getAge()</text></g><g transform="translate(45.37420738784749 820.8644031557424) rotate(0 206 12)"><text x="0" y="19" font-family="Cascadia, Segoe UI Emoji" font-size="20px" fill="#000000" text-anchor="start" style="white-space: pre;" direction="ltr">+ void : setHeight(height: Integer)</text></g><g transform="translate(45.37420738784749 459.924572660163) rotate(0 83 12)"><text x="0" y="19" font-family="Cascadia, Segoe UI Emoji" font-size="20px" fill="#000000" text-anchor="start" style="white-space: pre;" direction="ltr">- age: integer</text></g><g transform="translate(45.37420738784749 678.1456645628214) rotate(0 177 12)"><text x="0" y="19" font-family="Cascadia, Segoe UI Emoji" font-size="20px" fill="#000000" text-anchor="start" style="white-space: pre;" direction="ltr">+ void : setName(name: String)</text></g><g transform="translate(45.37420738784749 531.718643075551) rotate(0 83 12)"><text x="0" y="19" font-family="Cascadia, Segoe UI Emoji" font-size="20px" fill="#000000" text-anchor="start" style="white-space: pre;" direction="ltr">- name: string</text></g><g transform="translate(44.606977303944404 749.5050338592819) rotate(0 171 12)"><text x="0" y="19" font-family="Cascadia, Segoe UI Emoji" font-size="20px" fill="#000000" text-anchor="start" style="white-space: pre;" direction="ltr">+ void : setAge(age: Integer)</text></g><g transform="translate(45.37420738784749 856.5440878039726) rotate(0 136 12)"><text x="0" y="19" font-family="Cascadia, Segoe UI Emoji" font-size="20px" fill="#000000" text-anchor="start" style="white-space: pre;" direction="ltr">+ Integer : getWeight()</text></g><g transform="translate(45.37420738784749 567.615678283245) rotate(0 100.5 12)"><text x="0" y="19" font-family="Cascadia, Segoe UI Emoji" font-size="20px" fill="#000000" text-anchor="start" style="white-space: pre;" direction="ltr">- weight: integer</text></g><g transform="translate(45.37420738784749 785.1847185075121) rotate(0 136 12)"><text x="0" y="19" font-family="Cascadia, Segoe UI Emoji" font-size="20px" fill="#000000" text-anchor="start" style="white-space: pre;" direction="ltr">+ Integer : getHeight()</text></g><g transform="translate(45.37420738784749 892.2237724522029) rotate(0 206 12)"><text x="0" y="19" font-family="Cascadia, Segoe UI Emoji" font-size="20px" fill="#000000" text-anchor="start" style="white-space: pre;" direction="ltr">+ void : setWeight(weight: Integer)</text></g><g stroke-linecap="round"><g transform="translate(10.887364299576802 622.7083360979286) rotate(0 237.23819578999473 -0.5050730421603475)"><path d="M0.37 0.04 C79.43 -0.07, 396.35 -1.18, 475.36 -1.04 M-0.89 -0.98 C78.02 -0.95, 395.9 -0.05, 475.02 -0.05" stroke="#000000" stroke-width="1" fill="none"></path></g></g><g stroke-linecap="round" transform="translate(819.1700903151414 33.9278055721943) rotate(0 333.78836574980005 318.19457932862133)"><path d="M-0.33 0.35 C170.28 -1.7, 342.34 -1.97, 668.17 0.42 M0.24 0.16 C184.9 -1.57, 369.52 -1.47, 667.46 0.22 M668.35 0.19 C668.04 210.29, 668.16 421.79, 667.67 635.72 M667.64 -0.16 C668.84 213.99, 669.19 427.26, 667.52 636.56 M667.39 636.75 C479.84 638.62, 293.49 638.77, -0.32 635.81 M667.31 636.36 C527.92 638.3, 388.29 638.45, -0.24 636.32 M-0.18 636.18 C1.24 446.35, 1.87 257.77, 0.46 -0.47 M-0.21 636.27 C-2.42 461.44, -2.77 286.33, 0.07 0.15" stroke="#000000" stroke-width="1" fill="none"></path></g><g stroke-linecap="round"><g transform="translate(818.6689552673206 99.40375731475524) rotate(0 334.4736536396431 0.5028794315103369)"><path d="M-0.49 0.52 C110.55 0.37, 555.69 0, 667.27 -0.18 M1.45 -0.25 C112.77 -0.27, 558.26 1.14, 669.44 1.26" stroke="#000000" stroke-width="1" fill="none"></path></g></g><g transform="translate(1101.3473517355142 46.283005943057105) rotate(0 64.5 21.5)"><text x="64.5" y="34" font-family="Cascadia, Segoe UI Emoji" font-size="36px" fill="#000000" text-anchor="middle" style="white-space: pre;" direction="ltr">People</text></g><g transform="translate(853.149920472094 132.31322703347723) rotate(0 141.5 12)"><text x="0" y="19" font-family="Cascadia, Segoe UI Emoji" font-size="20px" fill="#000000" text-anchor="start" style="white-space: pre;" direction="ltr">- members : List&lt;Person&gt;</text></g><g transform="translate(853.149920472094 350.75166949559934) rotate(0 100.5 12)"><text x="0" y="19" font-family="Cascadia, Segoe UI Emoji" font-size="20px" fill="#000000" text-anchor="start" style="white-space: pre;" direction="ltr">+ void : People()</text></g><g transform="translate(853.149920472094 422.11103879205984) rotate(0 171 12)"><text x="0" y="19" font-family="Cascadia, Segoe UI Emoji" font-size="20px" fill="#000000" text-anchor="start" style="white-space: pre;" direction="ltr">+ void : addMember(p: Person)</text></g><g transform="translate(853.149920472094 168.21026224117122) rotate(0 165 12)"><text x="0" y="19" font-family="Cascadia, Segoe UI Emoji" font-size="20px" fill="#000000" text-anchor="start" style="white-space: pre;" direction="ltr">- sortStrategy: SortStrategy</text></g><g transform="translate(853.149920472094 386.4313541438296) rotate(0 305.5 12)"><text x="0" y="19" font-family="Cascadia, Segoe UI Emoji" font-size="20px" fill="#000000" text-anchor="start" style="white-space: pre;" direction="ltr">+ void : setSortStrategy(sortStrategy: SortStrategy)</text></g><g transform="translate(852.3826903881909 457.7907234402901) rotate(0 171 12)"><text x="0" y="19" font-family="Cascadia, Segoe UI Emoji" font-size="20px" fill="#000000" text-anchor="start" style="white-space: pre;" direction="ltr">+ void : setAge(age: Integer)</text></g><g transform="translate(853.149920472094 493.47040808852034) rotate(0 188.5 12)"><text x="0" y="19" font-family="Cascadia, Segoe UI Emoji" font-size="20px" fill="#000000" text-anchor="start" style="white-space: pre;" direction="ltr">+ void : print(out: PrintStream)</text></g><g stroke-linecap="round"><g transform="translate(818.6689552673206 330.98878724839506) rotate(0 333.54670405355137 -0.24973882891617905)"><path d="M-0.76 0.57 C110.54 0.63, 556.3 0.73, 667.86 0.65 M1.04 -0.18 C112.15 -0.49, 555.56 -1.41, 666.72 -1.13" stroke="#000000" stroke-width="1" fill="none"></path></g></g><g stroke-linecap="round" transform="translate(816.5495639056071 1264.83627083878) rotate(0 346.6772614203728 119.88047101566144)"><path d="M-0.77 0.72 C156.97 -2.64, 313.16 -2.53, 692.59 -0.25 M-0.09 -0.37 C149.3 -1.67, 299.26 -1.51, 693.35 0.11 M691.96 0.83 C693.22 80.99, 693.47 162.4, 692.82 239.44 M693.17 -0.26 C692.29 87.24, 691.99 173.41, 693.43 240.1 M694.15 240.16 C486.61 236.93, 278.61 236.95, -0.44 239.62 M693.14 239.66 C511.06 240.02, 328.45 240.66, 0.05 239.87 M-0.32 238.11 C1.49 148.36, -0.02 55.35, -1.19 1.07 M-0.71 239.11 C-2.1 163.09, -1.7 85.4, -0.15 -0.72" stroke="#000000" stroke-width="1" fill="none"></path></g><g stroke-linecap="round"><g transform="translate(816.8314856963871 1388.1032543126917) rotate(0 346.2010686287981 1.0315227220178258)"><path d="M-1.16 1.08 C114.52 0.91, 577.78 0.3, 693.56 0.17 M0.44 0.59 C116.1 1.15, 577.72 2.2, 693.2 1.8" stroke="#000000" stroke-width="1" fill="none"></path></g></g><g transform="translate(1098.72682532598 1309.2631111988953) rotate(0 64.5 21.5)"><text x="64.5" y="34" font-family="Cascadia, Segoe UI Emoji" font-size="36px" fill="#000000" text-anchor="middle" style="white-space: pre;" direction="ltr">Client</text></g><g stroke-linecap="round"><g transform="translate(816.042550974289 1397.4039748968185) rotate(0 346.8715070870944 -0.643986400322774)"><path d="M1.12 0.17 C116.89 0.05, 578.47 0.43, 693.5 0.34 M0.24 -0.78 C116.06 -0.76, 577.55 -1.86, 693.11 -1.6" stroke="#000000" stroke-width="1" fill="none"></path></g></g><g stroke-linecap="round" transform="translate(2711.6036843162738 10) rotate(0 346.6772614203728 119.88047101566144)"><path d="M-0.17 0.4 C182.89 -1.92, 365.52 -2.52, 692.61 -0.66 M-0.12 -0.36 C200.17 -2.92, 400.75 -2.95, 693.3 0.24 M692.52 -0.94 C693.14 65.4, 694.09 128.89, 692.05 240.84 M692.94 -0.61 C692.71 70.6, 692.92 141.24, 692.86 240.53 M693.46 239.69 C453.09 242.28, 211.1 242.93, -0.74 240.3 M693.7 239.67 C531.85 241.16, 370.99 240.67, 0.02 239.91 M-1.65 240.27 C2 163.82, 3.09 84.46, 0.2 -0.4 M-0.58 240.03 C1.38 152.53, 1.81 63.67, 0.32 0.12" stroke="#000000" stroke-width="1" fill="none"></path></g><g stroke-linecap="round"><g transform="translate(2711.8856061070537 133.26698347391175) rotate(0 345.79460206128215 0.13649413903931418)"><path d="M-0.52 -0.93 C114.81 -0.57, 576.56 0.74, 692.11 1.08 M1.4 1.19 C116.53 1.34, 575.86 -0.17, 690.99 -0.47" stroke="#000000" stroke-width="1" fill="none"></path></g></g><g transform="translate(2930.7809457366466 73.63673980145813) rotate(0 127.5 21.5)"><text x="127.5" y="34" font-family="Cascadia, Segoe UI Emoji" font-size="36px" fill="#000000" text-anchor="middle" style="white-space: pre;" direction="ltr">SortStrategy</text></g><g transform="translate(2949.735618859824 32.910451520544484) rotate(0 107.5 17)"><text x="107.5" y="27" font-family="Cascadia, Segoe UI Emoji" font-size="28px" fill="#000000" text-anchor="middle" style="white-space: pre;" direction="ltr">&lt;&lt;interface&gt;&gt;</text></g><g stroke-linecap="round"><g transform="translate(2711.0966713849557 142.56770405803854) rotate(0 346.1488667102858 0.15200297746014257)"><path d="M-0.25 0.6 C115.26 0.57, 577.13 1.06, 692.55 0.98 M1.82 -0.14 C117.22 0.03, 576.73 -0.9, 691.65 -0.63" stroke="#000000" stroke-width="1" fill="none"></path></g></g><g transform="translate(2745.5835144732264 176.5345580961548) rotate(0 159 12)"><text x="0" y="19" font-family="Cascadia, Segoe UI Emoji" font-size="20px" fill="#000000" text-anchor="start" style="white-space: pre;" direction="ltr">~ customSort : List&lt;Person&gt;</text></g><g stroke-linecap="round" transform="translate(1554.0667124085267 769.8616591731834) rotate(0 346.6772614203728 119.88047101566144)"><path d="M-0.25 0.04 C185.83 -0.98, 371.04 -2.24, 693.98 0.25 M-0.39 -0.22 C241.64 1.17, 484.36 1.32, 693.23 -0.22 M691.96 -1.23 C694.5 51.81, 694.84 101.48, 694.41 240.49 M692.94 -0.07 C694.27 78.58, 695.16 155.34, 693.96 239.95 M693.3 239.92 C509.87 240.6, 324.65 242.14, -0.09 239.4 M693.23 239.43 C522.63 238.6, 352.46 238.52, 0.34 239.56 M-0.66 239.03 C0.06 147.18, 0.26 51.85, -1.34 -0.4 M0.75 239.97 C0.12 143.54, 1.48 48.01, -0.48 -0.81" stroke="#000000" stroke-width="1" fill="none"></path></g><g stroke-linecap="round"><g transform="translate(1554.3486341993066 893.1286426470951) rotate(0 346.1444848904712 -0.09560296927293166)"><path d="M-0.38 0.07 C115.03 0.1, 577.27 1.06, 692.67 0.88 M1.62 -0.95 C116.88 -1.3, 576.95 -0.9, 691.84 -0.79" stroke="#000000" stroke-width="1" fill="none"></path></g></g><g transform="translate(1730.7439738288995 814.2884995332988) rotate(0 170 21.5)"><text x="170" y="34" font-family="Cascadia, Segoe UI Emoji" font-size="36px" fill="#000000" text-anchor="middle" style="white-space: pre;" direction="ltr">nameSortStrategy</text></g><g stroke-linecap="round"><g transform="translate(1553.5596994772086 902.4293632312219) rotate(0 346.72992312699125 -0.4203091840588513)"><path d="M0.88 -0.47 C116.1 -0.35, 576.09 0.77, 691.41 0.94 M-0.12 -1.76 C115.46 -1.98, 578.19 -0.73, 693.58 -0.68" stroke="#000000" stroke-width="1" fill="none"></path></g></g><g transform="translate(1588.0465425654793 936.3962172693382) rotate(0 159 12)"><text x="0" y="19" font-family="Cascadia, Segoe UI Emoji" font-size="20px" fill="#000000" text-anchor="start" style="white-space: pre;" direction="ltr">+ customSort : List&lt;Person&gt;</text></g><g stroke-linecap="round" transform="translate(3102.5610770950007 769.8616591731834) rotate(0 346.6772614203728 119.88047101566144)"><path d="M-0.31 0.33 C254.61 -0.86, 507.25 -0.51, 693.47 0.69 M0.04 0.36 C203.32 -2.16, 405.77 -1.64, 693.75 0.27 M692.23 -1.38 C692.74 97.38, 692.51 191.67, 693.31 240.7 M692.82 0.13 C694.03 84.72, 694.5 167.77, 693.53 238.97 M692.76 239.49 C428.49 237.63, 163.17 237.32, 0.46 240.27 M693.35 239.54 C442.69 241.52, 192.49 241.19, -0.19 239.95 M-1.3 240.54 C2.54 162.04, 0.58 85.83, 1.28 0.28 M-0.34 239.68 C1.18 155.19, 0.87 68.86, -0.32 0.63" stroke="#000000" stroke-width="1" fill="none"></path></g><g stroke-linecap="round"><g transform="translate(3102.8429988857806 893.1286426470951) rotate(0 346.53093863822096 -0.22060149796311634)"><path d="M-0.46 0.49 C115.01 0.32, 578.17 -0.78, 693.52 -0.93 M1.49 -0.3 C116.84 -0.35, 577.71 -0.05, 693.15 0.11" stroke="#000000" stroke-width="1" fill="none"></path></g></g><g transform="translate(3290.2383385153735 814.2884995332988) rotate(0 159 21.5)"><text x="159" y="34" font-family="Cascadia, Segoe UI Emoji" font-size="36px" fill="#000000" text-anchor="middle" style="white-space: pre;" direction="ltr">ageSortStrategy</text></g><g stroke-linecap="round"><g transform="translate(3102.0540641636826 902.4293632312219) rotate(0 347.0678705620908 0.11085040799912349)"><path d="M1.08 -0.93 C116.44 -1.08, 576.39 -0.74, 691.65 -0.41 M0.19 1.19 C115.97 1.17, 578.65 1.23, 693.94 0.91" stroke="#000000" stroke-width="1" fill="none"></path></g></g><g transform="translate(3136.5409072519533 936.3962172693382) rotate(0 159 12)"><text x="0" y="19" font-family="Cascadia, Segoe UI Emoji" font-size="20px" fill="#000000" text-anchor="start" style="white-space: pre;" direction="ltr">+ customSort : List&lt;Person&gt;</text></g><g stroke-linecap="round" transform="translate(3869.016160637193 769.8616591731834) rotate(0 346.6772614203728 119.88047101566144)"><path d="M0.19 0.23 C193.03 0.14, 386.04 -0.92, 692.9 -0.15 M-0.1 0.02 C158.55 1.23, 316.37 1.41, 693.14 -0.37 M692.13 -1.64 C691.66 73.16, 691.14 147.24, 692.42 240.02 M694.07 -0.33 C695.34 54.02, 694.89 107.58, 693.16 239.47 M693.68 239.58 C481.15 240.02, 267.34 239.28, 0.08 239.83 M692.97 239.41 C550.21 240.12, 407.61 240.33, 0.13 239.48 M1.36 240.5 C-2.3 178.86, -2.42 118.32, -1.48 -0.9 M0.23 239.88 C0.66 188.64, 0.19 138.02, -0.27 -0.14" stroke="#000000" stroke-width="1" fill="none"></path></g><g stroke-linecap="round"><g transform="translate(3869.298082427973 893.1286426470951) rotate(0 345.84421391357273 -0.32508603069322817)"><path d="M0.29 0.35 C115.69 0.42, 577.27 0.78, 692.71 0.55 M-1.02 -0.51 C114.21 -0.8, 576.33 -1.32, 691.91 -1.28" stroke="#000000" stroke-width="1" fill="none"></path></g></g><g transform="translate(4024.693422057566 814.2884995332988) rotate(0 191 21.5)"><text x="191" y="34" font-family="Cascadia, Segoe UI Emoji" font-size="36px" fill="#000000" text-anchor="middle" style="white-space: pre;" direction="ltr">heightSortStrategy</text></g><g stroke-linecap="round"><g transform="translate(3868.509147705875 902.4293632312219) rotate(0 345.9525931129283 -0.24007143862536395)"><path d="M0.27 0.55 C115.72 0.32, 577.7 -0.91, 692.95 -1.03 M-1.04 -0.2 C114.26 -0.35, 576.99 -0.24, 692.27 -0.04" stroke="#000000" stroke-width="1" fill="none"></path></g></g><g transform="translate(3902.9959907941457 936.3962172693382) rotate(0 159.00000000000045 12)"><text x="0" y="19" font-family="Cascadia, Segoe UI Emoji" font-size="20px" fill="#000000" text-anchor="start" style="white-space: pre;" direction="ltr">+ customSort : List&lt;Person&gt;</text></g><g stroke-linecap="round" transform="translate(2319.742766401365 769.8616591731834) rotate(0 346.6772614203728 119.88047101566144)"><path d="M0.46 0.12 C143.83 -1.91, 287.76 -2.39, 693.76 0.5 M0.33 -0.12 C189.99 1.76, 380.37 1.16, 693.27 -0.28 M692.77 -1.31 C691.12 96.57, 690.62 191.66, 692.45 241.39 M693.35 0.23 C693.04 59.28, 694.17 117.58, 693.63 238.99 M693.46 239.96 C509.08 241.14, 324.57 240.79, -0.06 239.08 M693.33 240.03 C419.29 239.84, 144.42 239.97, -0.38 239.86 M-0.82 241.28 C0.6 186.67, -0.15 130.87, -0.21 -0.33 M0.72 240.3 C-1.01 162.74, -1.1 86.3, -0.19 0.63" stroke="#000000" stroke-width="1" fill="none"></path></g><g stroke-linecap="round"><g transform="translate(2320.024688192145 893.1286426470951) rotate(0 345.85099446911863 -0.16305803818931963)"><path d="M0.69 0.19 C116.12 0.14, 576.9 0.78, 692.11 0.75 M-0.41 -0.76 C114.88 -0.63, 575.77 -1.33, 690.99 -0.98" stroke="#000000" stroke-width="1" fill="none"></path></g></g><g transform="translate(2475.4200278217377 814.2884995332988) rotate(0 191 21.5)"><text x="191" y="34" font-family="Cascadia, Segoe UI Emoji" font-size="36px" fill="#000000" text-anchor="middle" style="white-space: pre;" direction="ltr">weightSortStrategy</text></g><g stroke-linecap="round"><g transform="translate(2319.235753470047 902.4293632312219) rotate(0 345.8014201650726 0.823129069846118)"><path d="M-0.33 0.75 C114.88 0.73, 576.37 0.04, 691.93 0.03 M1.7 0.1 C116.64 0.27, 575.57 1.81, 690.72 1.59" stroke="#000000" stroke-width="1" fill="none"></path></g></g><g transform="translate(2353.7225965583175 936.3962172693382) rotate(0 159 12)"><text x="0" y="19" font-family="Cascadia, Segoe UI Emoji" font-size="20px" fill="#000000" text-anchor="start" style="white-space: pre;" direction="ltr">+ customSort : List&lt;Person&gt;</text></g><g stroke-linecap="round" transform="translate(749.2922570678329 338.08211398691765) rotate(0 34.07019439121814 24.921414057544553)"><path d="M34.22 1 C43.12 5.29, 52.6 11.38, 67.54 24.19 M34.86 -0.07 C44.08 6.07, 52.19 13.68, 67.64 25.37 M66.97 24.84 C54.5 34.11, 43.75 44.15, 36.8 49.35 M67.56 25.44 C55.3 34.74, 42.09 45, 34.99 49.55 M35.66 48.25 C20.08 41.9, 6.48 31.76, -0.12 23.04 M35.57 49.74 C28.38 44.62, 21.01 39.83, -0.08 24.84 M1.7 23.91 C11.37 15.67, 24.05 10.17, 34.04 -0.88 M-0.83 24.33 C12.54 16.57, 25.06 5.61, 34.11 -0.67" stroke="#000000" stroke-width="1" fill="none"></path></g><g stroke-linecap="round"><g transform="translate(748.7444784855616 360.3409653714634) rotate(0 -129.46949203952545 0.5926161541869988)"><path d="M-0.74 -0.62 C-44.11 -0.53, -217.06 -0.11, -260.01 -0.01 M1.08 1.67 C-41.93 2.01, -214.35 1.58, -257.64 1.52" stroke="#000000" stroke-width="1" fill="none"></path></g><g transform="translate(748.7444784855616 360.3409653714634) rotate(0 -129.46949203952545 0.5926161541869988)"><path d="M-230.46 -9.77 C-238.52 -4.06, -247.55 -1.13, -258.91 0.77 M-228.74 -8.72 C-238.79 -5.3, -246.61 -3.38, -257.11 2.33" stroke="#000000" stroke-width="1" fill="none"></path></g><g transform="translate(748.7444784855616 360.3409653714634) rotate(0 -129.46949203952545 0.5926161541869988)"><path d="M-230.5 10.75 C-238.45 9.9, -247.47 6.27, -258.91 0.77 M-228.78 11.81 C-238.69 9, -246.5 4.7, -257.11 2.33" stroke="#000000" stroke-width="1" fill="none"></path></g></g><g transform="translate(503.1538693166367 374.7416142501015) rotate(0 30.5 12)"><text x="30.5" y="19" font-family="Cascadia, Segoe UI Emoji" font-size="20px" fill="#000000" text-anchor="middle" style="white-space: pre;" direction="ltr">0...*</text></g><g transform="translate(729.7772724673168 371.2229824143524) rotate(0 7 12)"><text x="7" y="19" font-family="Cascadia, Segoe UI Emoji" font-size="20px" fill="#000000" text-anchor="middle" style="white-space: pre;" direction="ltr">1</text></g><g stroke-linecap="round"><g transform="translate(1940.7238301465914 745.7684290173729) rotate(0 376.38208837730326 -247.67351563365378)"><path d="M-0.28 0.19 C125.18 -82.47, 627.36 -412.7, 753.05 -495.54" stroke="#000000" stroke-width="2.5" fill="none" stroke-dasharray="8 10"></path></g><g transform="translate(1940.7238301465914 745.7684290173729) rotate(0 376.38208837730326 -247.67351563365378)"><path d="M754.65 -494.8 L745.79 -483.54 L739.66 -492.75 L752 -495.75" stroke="none" stroke-width="0" fill="#000000" fill-rule="evenodd"></path><path d="M753.28 -496.23 C751.97 -491.17, 747.78 -487.27, 746.15 -481.79 M744.97 -481.85 C743.91 -486.91, 741.4 -490.23, 737.12 -493.62 M736.94 -492.05 C743.29 -494.04, 749.14 -495.14, 754.26 -495.96 M753.05 -495.54 C753.05 -495.54, 753.05 -495.54, 753.05 -495.54" stroke="#000000" stroke-width="2.5" fill="none"></path></g></g><g stroke-linecap="round"><g transform="translate(2690.9973938989024 745.851829425736) rotate(0 110.93435215953832 -239.33318515891574)"><path d="M-0.47 0.9 C36.62 -78.89, 185.16 -399.65, 222.34 -479.57" stroke="#000000" stroke-width="2.5" fill="none" stroke-dasharray="8 10"></path></g><g transform="translate(2690.9973938989024 745.851829425736) rotate(0 110.93435215953832 -239.33318515891574)"><path d="M221.32 -478.2 L220.48 -462.57 L211.46 -468.9 L220.46 -478.9" stroke="none" stroke-width="0" fill="#000000" fill-rule="evenodd"></path><path d="M223.47 -480.65 C221.08 -476.05, 222.31 -470.62, 221.5 -463.8 M222.31 -465.66 C219.33 -466.32, 215.1 -467.17, 211.32 -470.94 M210.78 -470.52 C214.26 -474.59, 218.35 -478.45, 222.17 -480.51 M222.34 -479.57 C222.34 -479.57, 222.34 -479.57, 222.34 -479.57" stroke="#000000" stroke-width="2.5" fill="none"></path></g></g><g stroke-linecap="round"><g transform="translate(3417.01267056871 747.5084016670598) rotate(0 -120.54768517949606 -241.60020893022897)"><path d="M0.26 -0.19 C-39.78 -80.77, -201.34 -402.7, -241.35 -483.01" stroke="#000000" stroke-width="2.5" fill="none" stroke-dasharray="8 10"></path></g><g transform="translate(3417.01267056871 747.5084016670598) rotate(0 -120.54768517949606 -241.60020893022897)"><path d="M-241.74 -484.52 L-230.43 -475.69 L-240.19 -466.64 L-243.1 -483.33" stroke="none" stroke-width="0" fill="#000000" fill-rule="evenodd"></path><path d="M-241.59 -483.62 C-240.23 -479.83, -236.6 -478.97, -229.68 -474.35 M-229.25 -473.34 C-233.19 -471.03, -237.19 -468.11, -241.43 -469.21 M-240.58 -466.69 C-241.06 -473.21, -241.36 -475.87, -240.06 -484.01 M-241.35 -483.01 C-241.35 -483.01, -241.35 -483.01, -241.35 -483.01" stroke="#000000" stroke-width="2.5" fill="none"></path></g></g><g stroke-linecap="round"><g transform="translate(4132.452520006929 747.5084016670598) rotate(0 -354.3295660755275 -248.1220870934519)"><path d="M-0.7 -0.95 C-118.86 -83.32, -589.82 -412.85, -707.95 -495.3" stroke="#000000" stroke-width="2.5" fill="none" stroke-dasharray="8 10"></path></g><g transform="translate(4132.452520006929 747.5084016670598) rotate(0 -354.3295660755275 -248.1220870934519)"><path d="M-709.56 -495.01 L-692.88 -492.9 L-701.8 -482.64 L-708.45 -496.98" stroke="none" stroke-width="0" fill="#000000" fill-rule="evenodd"></path><path d="M-709.14 -494.58 C-702.12 -495.42, -696.85 -493.06, -692.54 -491.78 M-692.96 -493.92 C-695.91 -490.68, -698.54 -486.1, -700.89 -481.76 M-700.15 -482.11 C-702.22 -486.42, -705.99 -492.11, -707.94 -495.73 M-707.95 -495.3 C-707.95 -495.3, -707.95 -495.3, -707.95 -495.3" stroke="#000000" stroke-width="2.5" fill="none"></path></g></g><g stroke-linecap="round"><g transform="translate(1499.701266197323 402.35196304458714) rotate(0 103.58811626426814 169.51279773443457)"><path d="M-0.01 1.01 C31.08 5.59, 153.53 -30.31, 187.44 27.01 C221.36 84.34, 200.66 291.98, 203.47 344.96" stroke="#000000" stroke-width="2.5" fill="none" stroke-dasharray="8 10"></path></g><g transform="translate(1499.701266197323 402.35196304458714) rotate(0 103.58811626426814 169.51279773443457)"><path d="M195.49 317.91 C197.45 325.99, 199.65 337.98, 202.1 344.91" stroke="#000000" stroke-width="2.5" fill="none"></path></g><g transform="translate(1499.701266197323 402.35196304458714) rotate(0 103.58811626426814 169.51279773443457)"><path d="M216.01 318.35 C210.29 326.26, 204.81 338.09, 202.1 344.91" stroke="#000000" stroke-width="2.5" fill="none"></path></g></g><g transform="translate(1584.5846619221502 338.64004098938676) rotate(0 58.5 17)"><text x="58.5" y="27" font-family="Cascadia, Segoe UI Emoji" font-size="28px" fill="#000000" text-anchor="middle" style="white-space: pre;" direction="ltr">&lt;&lt;use&gt;&gt;</text></g><g stroke-linecap="round" transform="translate(1491.1495270956711 108.93008228225881) rotate(0 34.07019439121814 24.921414057544553)"><path d="M36.73 -1.82 C45.43 9.68, 54.34 14.84, 67.2 25.12 M35.76 0.61 C44.2 6.09, 52.93 12.8, 67.42 25.01 M67.95 23.62 C60.02 29.65, 56.02 36.55, 35.45 48.92 M67.49 25.01 C55.22 35.55, 41.42 44.89, 34.65 50.7 M36.62 50.57 C24.23 42.66, 15.71 36.43, -1.04 24.62 M34.06 49.55 C20.8 40.22, 8 29.37, 0.54 24.9 M-0.62 25.97 C11.13 18.38, 17.4 11.25, 34.47 0.49 M-0.46 24.84 C12.9 15.6, 27.01 5.53, 34.33 -0.67" stroke="#000000" stroke-width="1" fill="none"></path></g><g stroke-linecap="round"><g transform="translate(2706.605272428722 132.52229751771483) rotate(0 -574.0970816188706 0.03659259192636455)"><path d="M1.04 -1.09 C-190.39 -0.76, -956.75 1.02, -1148.43 1.17 M0.13 0.95 C-191.45 1.04, -957.55 -0.34, -1149.23 -0.34" stroke="#000000" stroke-width="1" fill="none"></path></g><g transform="translate(2706.605272428722 132.52229751771483) rotate(0 -574.0970816188706 0.03659259192636455)"><path d="M-28.95 9.68 C-16.3 5.17, -9.83 1.58, 1.16 -1.79 M-26.52 9.81 C-21.17 7.13, -14.55 3.5, 1.05 -2.05" stroke="#000000" stroke-width="1" fill="none"></path></g><g transform="translate(2706.605272428722 132.52229751771483) rotate(0 -574.0970816188706 0.03659259192636455)"><path d="M-29 -10.84 C-16.47 -8.93, -9.98 -6.1, 1.16 -1.79 M-26.56 -10.72 C-21.23 -8.62, -14.61 -7.49, 1.05 -2.05" stroke="#000000" stroke-width="1" fill="none"></path></g></g><g transform="translate(1557.8443302624437 146.92294639635475) rotate(0 7 12)"><text x="7" y="19" font-family="Cascadia, Segoe UI Emoji" font-size="20px" fill="#000000" text-anchor="middle" style="white-space: pre;" direction="ltr">1</text></g><g transform="translate(2651.6344407698944 143.4043145606047) rotate(0 7 12)"><text x="7" y="19" font-family="Cascadia, Segoe UI Emoji" font-size="20px" fill="#000000" text-anchor="middle" style="white-space: pre;" direction="ltr">1</text></g><g stroke-linecap="round"><g transform="translate(1521.224411600505 1288.7836521101854) rotate(0 192.8866822849959 -130.54971179477866)"><path d="M0.33 -0.26 C64.76 -43.73, 321.13 -217.67, 385.44 -260.84" stroke="#000000" stroke-width="2.5" fill="none" stroke-dasharray="8 10"></path></g><g transform="translate(1521.224411600505 1288.7836521101854) rotate(0 192.8866822849959 -130.54971179477866)"><path d="M367.4 -237.49 C370.04 -241.28, 376.26 -247.61, 383.62 -260.13" stroke="#000000" stroke-width="2.5" fill="none"></path></g><g transform="translate(1521.224411600505 1288.7836521101854) rotate(0 192.8866822849959 -130.54971179477866)"><path d="M355.91 -254.5 C360.92 -254.82, 369.5 -257.65, 383.62 -260.13" stroke="#000000" stroke-width="2.5" fill="none"></path></g></g><g stroke-linecap="round"><g transform="translate(1521.224411600505 1344.7837131453416) rotate(0 581.9946940194814 -152.13464899770906)"><path d="M-0.41 1.09 C193.7 -49.63, 970.33 -254.07, 1164.4 -305.35" stroke="#000000" stroke-width="2.5" fill="none" stroke-dasharray="8 10"></path></g><g transform="translate(1521.224411600505 1344.7837131453416) rotate(0 581.9946940194814 -152.13464899770906)"><path d="M1141.56 -287.58 C1147.85 -292.96, 1152.65 -298.89, 1163.59 -304.44" stroke="#000000" stroke-width="2.5" fill="none"></path></g><g transform="translate(1521.224411600505 1344.7837131453416) rotate(0 581.9946940194814 -152.13464899770906)"><path d="M1136.33 -307.43 C1143.9 -307.26, 1150.16 -307.66, 1163.59 -304.44" stroke="#000000" stroke-width="2.5" fill="none"></path></g></g><g stroke-linecap="round"><g transform="translate(1528.2243047889815 1406.7836826277635) rotate(0 959.0241620194165 -188.1702413033695)"><path d="M0.98 0.47 C320.5 -62.33, 1597.6 -314.1, 1917.07 -376.81" stroke="#000000" stroke-width="2.5" fill="none" stroke-dasharray="8 10"></path></g><g transform="translate(1528.2243047889815 1406.7836826277635) rotate(0 959.0241620194165 -188.1702413033695)"><path d="M1892.17 -362.85 C1897.68 -366.46, 1907.03 -368.87, 1917.33 -376.98" stroke="#000000" stroke-width="2.5" fill="none"></path></g><g transform="translate(1528.2243047889815 1406.7836826277635) rotate(0 959.0241620194165 -188.1702413033695)"><path d="M1888.2 -382.99 C1894.89 -380.64, 1905.42 -377.07, 1917.33 -376.98" stroke="#000000" stroke-width="2.5" fill="none"></path></g></g><g stroke-linecap="round"><g transform="translate(1526.2243353065596 1456.7836826277635) rotate(0 1374.8545040499412 -213.1935288142413)"><path d="M0.19 -0.07 C458.62 -71.2, 2291.23 -355.15, 2749.52 -426.32" stroke="#000000" stroke-width="2.5" fill="none" stroke-dasharray="8 10"></path></g><g transform="translate(1526.2243353065596 1456.7836826277635) rotate(0 1374.8545040499412 -213.1935288142413)"><path d="M2723.12 -412.65 C2728.19 -415.08, 2732.51 -417.55, 2748.05 -427.15" stroke="#000000" stroke-width="2.5" fill="none"></path></g><g transform="translate(1526.2243353065596 1456.7836826277635) rotate(0 1374.8545040499412 -213.1935288142413)"><path d="M2719.97 -432.93 C2725.79 -431.09, 2730.77 -429.29, 2748.05 -427.15" stroke="#000000" stroke-width="2.5" fill="none"></path></g></g><g stroke-linecap="round"><g transform="translate(1145.5576533811045 1248.7837284041316) rotate(0 -0.8381519241092974 -282.99057606311453)"><path d="M-0.08 -1.16 C-0.03 -95.19, -0.31 -470.89, -0.3 -565.15 M-1.58 0.85 C-1.66 -93.42, -1.53 -472.39, -1.41 -566.83" stroke="#000000" stroke-width="1" fill="none"></path></g><g transform="translate(1145.5576533811045 1248.7837284041316) rotate(0 -0.8381519241092974 -282.99057606311453)"><path d="M6.9 -539.14 C7.93 -545.71, 2.76 -554.59, -0.92 -567.23 M8.28 -538.13 C5.55 -547.53, 3.98 -555.35, -0.42 -567.01" stroke="#000000" stroke-width="1" fill="none"></path></g><g transform="translate(1145.5576533811045 1248.7837284041316) rotate(0 -0.8381519241092974 -282.99057606311453)"><path d="M-13.62 -539.15 C-7.5 -545.71, -7.58 -554.58, -0.92 -567.23 M-12.24 -538.14 C-9.13 -547.68, -4.88 -555.49, -0.42 -567.01" stroke="#000000" stroke-width="1" fill="none"></path></g></g></svg>